HIERARCHY
ROOT Hips
{
	OFFSET 0.000000 0.000000 0.000000
	CHANNELS 6 Xposition Yposition Zposition Zrotation Yrotation Xrotation 
	JOINT LHipJoint
	{
		OFFSET 0.000000 0.000000 0.000000
		CHANNELS 3 Zrotation Yrotation Xrotation
		JOINT LeftUpLeg
		{
			OFFSET 1.363060 -1.794630 0.839290
			CHANNELS 3 Zrotation Yrotation Xrotation
			JOINT LeftLeg
			{
				OFFSET 2.448110 -6.726130 0.000000
				CHANNELS 3 Zrotation Yrotation Xrotation
				JOINT LeftFoot
				{
					OFFSET 2.562200 -7.039590 0.000000
					CHANNELS 3 Zrotation Yrotation Xrotation
					JOINT LeftToeBase
					{
						OFFSET 0.157640 -0.433110 2.322550
						CHANNELS 3 Zrotation Yrotation Xrotation
						End Site
						{
							OFFSET 0.000000 0.000000 0.000000
						}
					}
				}
			}
		}
	}
	JOINT RHipJoint
	{
		OFFSET 0.000000 0.000000 0.000000
		CHANNELS 3 Zrotation Yrotation Xrotation
		JOINT RightUpLeg
		{
			OFFSET -1.305520 -1.794630 0.839290
			CHANNELS 3 Zrotation Yrotation Xrotation
			JOINT RightLeg
			{
				OFFSET -2.542530 -6.985550 0.000000
				CHANNELS 3 Zrotation Yrotation Xrotation
				JOINT RightFoot
				{
					OFFSET -2.568260 -7.056230 0.000000
					CHANNELS 3 Zrotation Yrotation Xrotation
					JOINT RightToeBase
					{
						OFFSET -0.164730 -0.452590 2.363150
						CHANNELS 3 Zrotation Yrotation Xrotation
						End Site
						{
							OFFSET 0.000000 0.000000 0.000000
						}
					}
				}
			}
		}
	}
	JOINT LowerBack
	{
		OFFSET 0.000000 0.000000 0.000000
		CHANNELS 3 Zrotation Yrotation Xrotation
		JOINT Spine
		{
			OFFSET 0.028270 2.035590 -0.193380
			CHANNELS 3 Zrotation Yrotation Xrotation
			JOINT Spine1
			{
				OFFSET 0.056720 2.048850 -0.042750
				CHANNELS 3 Zrotation Yrotation Xrotation
				JOINT Neck
				{
					OFFSET 0.000000 0.000000 0.000000
					CHANNELS 3 Zrotation Yrotation Xrotation
					JOINT Neck1
					{
						OFFSET -0.054170 1.746240 0.172020
						CHANNELS 3 Zrotation Yrotation Xrotation
						JOINT Head
						{
							OFFSET 0.104070 1.761360 -0.123970
							CHANNELS 3 Zrotation Yrotation Xrotation
							End Site
							{
								OFFSET 0.000000 0.000000 0.000000
							}
						}
					}
				}
				JOINT LeftShoulder
				{
					OFFSET 0.000000 0.000000 0.000000
					CHANNELS 3 Zrotation Yrotation Xrotation
					JOINT LeftArm
					{
						OFFSET 3.362410 1.200890 -0.311210
						CHANNELS 3 Zrotation Yrotation Xrotation
						JOINT LeftForeArm
						{
							OFFSET 4.983000 -0.000000 -0.000000
							CHANNELS 3 Zrotation Yrotation Xrotation
							JOINT LeftHand
							{
								OFFSET 3.483560 -0.000000 -0.000000
								CHANNELS 3 Zrotation Yrotation Xrotation
								JOINT LeftFingerBase
								{
									OFFSET 0.000000 0.000000 0.000000
									CHANNELS 3 Zrotation Yrotation Xrotation
									JOINT LeftHandIndex1
									{
										OFFSET 0.715260 -0.000000 -0.000000
										CHANNELS 3 Zrotation Yrotation Xrotation
										End Site
										{
											OFFSET 0.000000 0.000000 0.000000
										}
									}
								}
								JOINT LThumb
								{
									OFFSET 0.000000 0.000000 0.000000
									CHANNELS 3 Zrotation Yrotation Xrotation
									End Site
									{
										OFFSET 0.000000 0.000000 0.000000
									}
								}
							}
						}
					}
				}
				JOINT RightShoulder
				{
					OFFSET 0.000000 0.000000 0.000000
					CHANNELS 3 Zrotation Yrotation Xrotation
					JOINT RightArm
					{
						OFFSET -3.136600 1.374050 -0.404650
						CHANNELS 3 Zrotation Yrotation Xrotation
						JOINT RightForeArm
						{
							OFFSET -5.241900 -0.000000 -0.000000
							CHANNELS 3 Zrotation Yrotation Xrotation
							JOINT RightHand
							{
								OFFSET -3.444170 -0.000000 -0.000000
								CHANNELS 3 Zrotation Yrotation Xrotation
								JOINT RightFingerBase
								{
									OFFSET 0.000000 0.000000 0.000000
									CHANNELS 3 Zrotation Yrotation Xrotation
									JOINT RightHandIndex1
									{
										OFFSET -0.622530 -0.000000 -0.000000
										CHANNELS 3 Zrotation Yrotation Xrotation
										End Site
										{
											OFFSET 0.000000 0.000000 0.000000
										}
									}
								}
								JOINT RThumb
								{
									OFFSET 0.000000 0.000000 0.000000
									CHANNELS 3 Zrotation Yrotation Xrotation
									End Site
									{
										OFFSET 0.000000 0.000000 0.000000
									}
								}
							}
						}
					}
				}
			}
		}
	}
}
MOTION
Frames: 8
Frame Time: 0.008333
2.160593 17.199682 0.247890 -16.378124 -84.000760 10.684744 -11.057485 3.248306 1.766715 -6.008295 8.505750 -0.664923 -1.142913 0.431054 16.277231 2.480424 15.245264 -10.176450 -0.746000 -0.000000 -34.085100 10.520873 -2.387408 -2.172284 -0.296922 -21.137410 -8.254292 -0.122515 -2.575572 39.831637 -1.064893 -5.082968 8.884699 -1.333000 0.000000 -83.295000 -4.215797 -3.520200 -1.702969 -0.995332 -3.301877 -2.619616 -3.836147 -3.348253 2.213322 8.610901 -22.458274 -8.068384 -0.310558 -0.016389 -0.058840 0.000000 0.000000 0.000000 5.509166 17.400507 0.111741 -60.668957 23.733665 -7.951149 -3.406676 -40.540536 0.003916 -2.110714 -0.080819 0.003162 -0.140223 0.054177 -0.000000 0.000000 0.000000 0.000000 0.000000 0.000000 0.000000 5.569168 -19.152770 -0.893600 63.818760 -9.701142 7.853420 2.195262 44.078832 0.010775 -0.111795 5.658527 -0.009667 0.096373 -0.096092 -0.000000 0.000000 0.000000 0.000000 0.000000 0.000000 0.000000 
2.164276 17.199927 0.305437 -17.573706 -83.652908 11.714676 -11.088661 3.228436 1.773948 -5.902840 8.453423 -0.315258 -1.132780 0.407721 15.985511 2.449354 15.014180 -10.270755 -0.767400 -0.000000 -33.943900 10.609877 -2.280400 -2.271417 -0.473510 -21.719181 -10.157032 -0.323256 -2.735021 42.971978 -1.151752 -5.119883 10.874897 -1.413101 -0.000000 -82.720401 -4.176836 -3.636106 -1.611789 -0.983155 -3.422752 -2.609469 -3.836873 -3.468336 2.175077 8.649197 -22.518694 -8.071235 -0.295052 -0.014902 -0.060356 0.000000 0.000000 0.000000 5.677664 17.137354 0.094764 -60.549368 23.844948 -7.334200 -3.322909 -41.501416 0.004010 -2.171917 -0.055281 0.002865 -0.136125 0.056716 -0.000000 0.000000 0.000000 0.000000 0.000000 0.000000 0.000000 5.546370 -19.245161 -0.867832 63.938635 -9.717767 7.816585 2.209107 43.903275 0.010708 0.043666 5.549154 -0.001777 0.095118 -0.094351 -0.000000 0.000000 0.000000 0.000000 0.000000 0.000000 0.000000 
2.170109 17.199047 0.361781 -18.883040 -83.327504 12.868504 -11.124648 3.199492 1.772589 -5.771798 8.429494 -0.019129 -1.120082 0.385840 15.767771 2.420411 14.790940 -10.396983 -0.797600 0.000000 -33.808700 10.681301 -2.152227 -2.367790 -0.561400 -22.238095 -12.146864 -0.505310 -2.886147 46.139111 -1.265265 -5.309618 12.663954 -1.527000 -0.000000 -81.397500 -4.110873 -3.752948 -1.513439 -0.965837 -3.546227 -2.597805 -3.840922 -3.590847 2.137780 8.694156 -22.576957 -8.087784 -0.280302 -0.013243 -0.065494 0.000000 0.000000 0.000000 5.848541 16.877941 0.081716 -60.422640 23.933761 -6.723905 -3.241639 -42.442096 0.004169 -2.263753 -0.039975 0.002668 -0.131761 0.059323 -0.000000 0.000000 0.000000 0.000000 0.000000 0.000000 0.000000 5.532514 -19.333293 -0.840302 64.058827 -9.696884 7.777529 2.221461 43.754827 0.010652 0.191306 5.455630 0.005413 0.093846 -0.092963 -0.000000 0.000000 0.000000 0.000000 0.000000 0.000000 0.000000 
2.178405 17.197030 0.416595 -20.287768 -83.029159 14.118132 -11.163564 3.162200 1.762867 -5.622661 8.419873 0.229096 -1.103977 0.367473 15.636658 2.397054 14.597166 -10.554493 -0.836600 0.000000 -33.674400 10.734842 -2.005475 -2.470535 -0.569472 -22.723605 -14.215004 -0.665049 -3.037116 49.326196 -1.391094 -5.626913 14.127071 -1.673700 0.000000 -79.454700 -4.019699 -3.869002 -1.398949 -0.943959 -3.670390 -2.583023 -3.848370 -3.713761 2.100952 8.744259 -22.630396 -8.116312 -0.266497 -0.011450 -0.073883 0.000000 0.000000 0.000000 6.020795 16.619619 0.072672 -60.289475 23.997100 -6.130957 -3.163627 -43.349492 0.004389 -2.380298 -0.035713 0.002767 -0.127206 0.061985 -0.000000 0.000000 0.000000 0.000000 0.000000 0.000000 0.000000 5.525439 -19.414623 -0.811345 64.185147 -9.636800 7.731112 2.232295 43.625681 0.010615 0.322203 5.386176 0.011706 0.092635 -0.092007 -0.000000 0.000000 0.000000 0.000000 0.000000 0.000000 0.000000 
2.189212 17.194088 0.470026 -21.889907 -82.771278 15.578714 -11.208830 3.115189 1.745791 -5.447100 8.441247 0.392670 -1.084197 0.352567 15.621668 2.379197 14.432115 -10.751381 -0.886700 0.000000 -33.540600 10.766651 -1.849199 -2.572396 -0.459004 -23.144986 -16.396838 -0.805721 -3.196840 52.543236 -1.519945 -6.079784 15.167914 -1.858900 -0.000000 -77.087400 -3.890275 -3.979571 -1.279520 -0.915307 -3.791257 -2.567242 -3.860526 -3.833219 2.066377 8.798678 -22.674502 -8.156434 -0.254768 -0.009636 -0.085331 0.000000 0.000000 0.000000 6.189071 16.371317 0.068135 -60.149732 24.025558 -5.561265 -3.089450 -44.210218 0.004647 -2.508249 -0.038649 0.003069 -0.122657 0.064648 -0.000000 0.000000 0.000000 0.000000 0.000000 0.000000 0.000000 5.527128 -19.483122 -0.781571 64.316727 -9.533917 7.670740 2.242232 43.509587 0.010607 0.429645 5.346434 0.016799 0.091572 -0.091541 -0.000000 0.000000 0.000000 0.000000 0.000000 0.000000 0.000000 
2.202750 17.190263 0.521874 -23.612939 -82.551607 17.155877 -11.255962 3.061156 1.721255 -5.261609 8.465362 0.506322 -1.060145 0.343548 15.712405 2.371077 14.323318 -10.978133 -0.945900 -0.000000 -33.397201 10.780987 -1.683793 -2.689734 -0.262704 -23.562539 -18.666392 -0.932166 -3.372829 55.773046 -1.636872 -6.598984 15.709798 -2.051400 0.000000 -74.551801 -3.731929 -4.084951 -1.136990 -0.881756 -3.908460 -2.547220 -3.876181 -3.948671 2.032444 8.853717 -22.705622 -8.204275 -0.244799 -0.007824 -0.098959 0.000000 0.000000 0.000000 6.352651 16.122676 0.067819 -60.007276 24.025467 -5.029311 -3.019616 -45.016081 0.004936 -2.639799 -0.048987 0.003468 -0.118208 0.067309 -0.000000 0.000000 0.000000 0.000000 0.000000 0.000000 0.000000 5.530395 -19.536590 -0.751004 64.463198 -9.389977 7.588723 2.251310 43.395252 0.010635 0.506995 5.340087 0.020495 0.090722 -0.091583 -0.000000 0.000000 0.000000 0.000000 0.000000 0.000000 0.000000 
2.219196 17.185672 0.572195 -25.473784 -82.372498 18.862645 -11.304977 3.000663 1.688196 -5.067890 8.489838 0.577272 -1.031648 0.341214 15.906760 2.373441 14.276922 -11.229944 -1.013600 -0.000000 -33.240200 10.778711 -1.512972 -2.826168 0.024204 -23.984867 -21.026586 -1.052494 -3.570876 59.009765 -1.733257 -7.137646 15.716456 -2.222300 -0.000000 -72.064900 -3.542542 -4.183514 -0.966331 -0.842989 -4.020398 -2.522164 -3.894880 -4.058494 1.998906 8.906056 -22.719894 -8.257078 -0.236846 -0.006084 -0.114076 0.000000 0.000000 0.000000 6.507432 15.870893 0.071668 -59.865476 23.997916 -4.544931 -2.954390 -45.760454 0.005230 -2.764101 -0.062865 0.003967 -0.114012 0.069931 -0.000000 0.000000 0.000000 0.000000 0.000000 0.000000 0.000000 5.530772 -19.571374 -0.719781 64.629129 -9.204554 7.479544 2.259874 43.274108 0.010692 0.550107 5.366648 0.022692 0.090140 -0.092118 -0.000000 0.000000 0.000000 0.000000 0.000000 0.000000 0.000000 
2.238655 17.180559 0.621245 -27.520408 -82.238915 20.757133 -11.356813 2.933850 1.646991 -4.865912 8.527583 0.587369 -0.999555 0.344828 16.208024 2.385120 14.286621 -11.505977 -1.090100 0.000000 -33.070300 10.759870 -1.340548 -2.975627 0.425901 -24.391425 -23.507756 -1.175718 -3.793742 62.254819 -1.804812 -7.656208 15.194641 -2.345400 -0.000000 -69.784900 -3.316949 -4.273418 -0.775413 -0.798055 -4.125442 -2.493638 -3.916776 -4.161206 1.966700 8.953789 -22.710426 -8.312712 -0.231741 -0.004530 -0.130048 0.000000 0.000000 0.000000 6.649459 15.620954 0.079944 -59.726083 23.939995 -4.110740 -2.893936 -46.437458 0.005505 -2.868541 -0.076020 0.004467 -0.110253 0.072475 -0.000000 0.000000 0.000000 0.000000 0.000000 0.000000 0.000000 5.527394 -19.580104 -0.688514 64.816003 -8.980111 7.331640 2.268556 43.143020 0.010777 0.562373 5.422452 0.023493 0.089816 -0.093114 -0.000000 0.000000 0.000000 0.000000 0.000000 0.000000 0.000000 
